<svg width="13" height="13" viewBox="0 0 13 13" fill="none" xmlns="http://www.w3.org/2000/svg">
<path d="M4.31654 0.903255L0.905033 4.31476C-0.301678 5.52147 -0.301678 7.47497 0.905033 8.68168L4.31654 12.0932C5.52325 13.2999 7.47675 13.2999 8.68346 12.0932L12.095 8.68168C13.3017 7.47497 13.3017 5.52147 12.095 4.31476L8.68346 0.903255C7.47675 -0.301085 5.52325 -0.301085 4.31654 0.903255Z" fill="white"/>
<path d="M1.25859 4.66832L4.66975 1.25716C4.66979 1.25712 4.66983 1.25708 4.66986 1.25704C5.68129 0.247731 7.31839 0.247654 8.32991 1.25681C8.33002 1.25692 8.33014 1.25704 8.33025 1.25716L11.7414 4.66832C12.7529 5.67976 12.7529 7.31668 11.7414 8.32813L8.32991 11.7396C7.31846 12.7511 5.68154 12.7511 4.67009 11.7396L1.25859 8.32813C0.247138 7.31668 0.247138 5.67976 1.25859 4.66832Z" stroke="#141414" stroke-opacity="0.3"/>
</svg>
